<svg width="84" height="136" viewBox="0 0 84 136" fill="none" xmlns="http://www.w3.org/2000/svg">
<path fill-rule="evenodd" clip-rule="evenodd" d="M0.999985 1L83.1893 1L83.1893 83.4619L0.999985 83.4619L0.999985 1Z" stroke="white"/>
<path fill-rule="evenodd" clip-rule="evenodd" d="M21.5473 83.462L1 83.462L1 104.077L21.5473 104.077L21.5473 83.462Z" stroke="white"/>
<path fill-rule="evenodd" clip-rule="evenodd" d="M31.8209 83.462L21.5472 83.462L21.5472 93.7697L31.8209 93.7697L31.8209 83.462Z" stroke="white"/>
<path fill-rule="evenodd" clip-rule="evenodd" d="M31.821 104.077L1 104.077L1 135L31.821 135L31.821 104.077Z" stroke="white"/>
<path fill-rule="evenodd" clip-rule="evenodd" d="M31.8209 93.7693L21.5472 93.7693L21.5472 104.077L31.8209 104.077L31.8209 93.7693Z" stroke="white"/>
<path d="M42.0947 83.4619C64.7906 83.4619 83.1894 65.0022 83.1894 42.231C83.1894 19.4597 64.7906 1 42.0947 1C19.3987 1 0.999985 19.4597 0.999985 42.231C0.999985 65.0022 19.3987 83.4619 42.0947 83.4619Z" stroke="white" stroke-linecap="square" stroke-linejoin="round"/>
<path d="M16.455 134.877C24.908 134.877 31.7604 128.002 31.7604 119.521C31.7604 111.04 24.908 104.165 16.455 104.165C8.00211 104.165 1.14966 111.04 1.14966 119.521C1.14966 128.002 8.00211 134.877 16.455 134.877Z" stroke="white" stroke-linecap="square" stroke-linejoin="round"/>
<path fill-rule="evenodd" clip-rule="evenodd" d="M31.8209 83.462L21.5472 83.462L21.5472 93.7697L31.8209 93.7697L31.8209 83.462Z" stroke="white"/>
<path fill-rule="evenodd" clip-rule="evenodd" d="M83.1844 83.421L31.7694 83.421V134.954L83.1844 134.954V83.421Z" stroke="white"/>
<path d="M57.4487 134.713C71.4931 134.713 82.8783 123.29 82.8783 109.199C82.8783 95.1085 71.4931 83.6855 57.4487 83.6855C43.4044 83.6855 32.0192 95.1085 32.0192 109.199C32.0192 123.29 43.4044 134.713 57.4487 134.713Z" stroke="white" stroke-linecap="square" stroke-linejoin="round"/>
<path d="M11.3579 104.119C17.0555 104.119 21.6743 99.485 21.6743 93.7685C21.6743 88.052 17.0555 83.4178 11.3579 83.4178C5.66029 83.4178 1.04147 88.052 1.04147 93.7685C1.04147 99.485 5.66029 104.119 11.3579 104.119Z" stroke="white" stroke-linecap="square" stroke-linejoin="round"/>
<path d="M26.5938 103.804C29.272 103.804 31.4431 101.626 31.4431 98.9389C31.4431 96.2519 29.272 94.0736 26.5938 94.0736C23.9157 94.0736 21.7446 96.2519 21.7446 98.9389C21.7446 101.626 23.9157 103.804 26.5938 103.804Z" stroke="white" stroke-linecap="square" stroke-linejoin="round"/>
<path d="M26.5938 93.4815C29.272 93.4815 31.4431 91.3032 31.4431 88.6162C31.4431 85.9291 29.272 83.7508 26.5938 83.7508C23.9157 83.7508 21.7446 85.9291 21.7446 88.6162C21.7446 91.3032 23.9157 93.4815 26.5938 93.4815Z" stroke="white" stroke-linecap="square" stroke-linejoin="round"/>
</svg>
